<svg version="1.1" xmlns="http://www.w3.org/2000/svg" viewBox="-2537.4977912397967 -1024.000048828125 8151.066409251271 2577.408166503906"><desc>Created with Snap</desc><defs></defs><g><g transform="matrix(25.8369,0,0,25.8369,-2553.5493,-1040.0839)"><g><path d="M74.265,60.41c0.964,2.929,1.401,5.966,1.261,9.015c2.584-0.989,5.013-2.49,7.095-4.572c0.244-0.244,0.41-0.527,0.637-0.78   c0.018-0.341,0.105-0.659,0.105-1.004c0-2.924-0.646-5.691-1.764-8.203C79.522,57.139,77.045,59.022,74.265,60.41z" fill="#e4473e" style=""></path><path d="M54.863,81.605c2.509,1.112,5.276,1.759,8.2,1.759c0.349,0,0.664-0.085,1.004-0.103c0.253-0.227,0.541-0.393,0.781-0.637   c2.08-2.085,3.585-4.516,4.572-7.104c-3.049,0.14-6.086-0.292-9.01-1.257C59.022,77.049,57.137,79.528,54.863,81.605z" fill="#e4473e" style=""></path><path d="M40.588,74.265c-2.925,0.965-5.965,1.396-9.013,1.257c0.988,2.588,2.49,5.023,4.573,7.104   c0.242,0.244,0.528,0.41,0.779,0.637c0.339,0.018,0.661,0.103,1.003,0.103c2.926,0,5.691-0.646,8.202-1.759   C43.861,79.528,41.976,77.049,40.588,74.265z" fill="#e4473e" style=""></path><path d="M26.731,60.41c-2.781-1.388-5.26-3.271-7.337-5.545c-1.112,2.512-1.758,5.279-1.758,8.203c0,0.345,0.085,0.663,0.1,1.004   c0.229,0.253,0.395,0.536,0.639,0.78c2.082,2.082,4.515,3.583,7.098,4.572C25.333,66.376,25.767,63.339,26.731,60.41z" fill="#e4473e" style=""></path><path d="M26.731,40.592c-0.964-2.929-1.398-5.966-1.259-9.016c-2.583,0.989-5.014,2.491-7.098,4.572   c-0.244,0.245-0.41,0.528-0.639,0.781c-0.015,0.341-0.1,0.659-0.1,1.004c0,2.924,0.646,5.69,1.76,8.205   C21.471,43.863,23.95,41.979,26.731,40.592z" fill="#e4473e" style=""></path><path d="M46.132,19.397c-2.511-1.114-5.275-1.76-8.202-1.76c-0.342,0-0.664,0.084-1.003,0.102   c-0.251,0.228-0.537,0.393-0.779,0.638c-2.083,2.08-3.585,4.515-4.573,7.103c3.048-0.14,6.088,0.293,9.013,1.257   C41.976,23.952,43.861,21.475,46.132,19.397z" fill="#e4473e" style=""></path><path d="M60.41,26.736c2.924-0.964,5.961-1.396,9.01-1.257c-0.99-2.588-2.492-5.017-4.572-7.103   c-0.24-0.245-0.528-0.41-0.781-0.638c-0.34-0.018-0.659-0.102-1.004-0.102c-2.924,0-5.691,0.646-8.2,1.76   C57.137,21.475,59.022,23.952,60.41,26.736z" fill="#e4473e" style=""></path><path d="M82.621,36.148c-2.082-2.081-4.511-3.583-7.095-4.572c0.14,3.05-0.297,6.087-1.261,9.016   c2.78,1.388,5.257,3.271,7.334,5.547c1.117-2.515,1.764-5.281,1.764-8.205c0-0.345-0.088-0.663-0.105-1.004   C83.031,36.677,82.865,36.394,82.621,36.148z" fill="#e4473e" style=""></path><path d="M58.228,63.068c0-0.166-0.048-0.319-0.052-0.484c-1.061-0.21-2.09-0.498-3.099-0.834c-0.462,0.921-0.89,1.851-1.469,2.719   c0.113,0.122,0.19,0.267,0.309,0.384c1.143,1.14,2.404,2.069,3.718,2.881C57.993,66.228,58.228,64.683,58.228,63.068z" fill="#e4473e" style=""></path><path d="M43.362,67.733c1.313-0.812,2.574-1.741,3.715-2.881c0.12-0.117,0.199-0.262,0.312-0.384   c-0.581-0.868-1.008-1.798-1.471-2.719c-1.008,0.336-2.038,0.624-3.1,0.834c-0.002,0.165-0.048,0.318-0.048,0.484   C42.771,64.683,43.006,66.228,43.362,67.733z" fill="#e4473e" style=""></path><path d="M36.148,53.922c-1.139,1.14-2.068,2.4-2.88,3.717c1.503,0.355,3.051,0.59,4.663,0.59c0.166,0,0.318-0.044,0.484-0.048   c0.209-1.06,0.495-2.094,0.833-3.102c-0.918-0.463-1.848-0.886-2.716-1.471C36.411,53.726,36.269,53.805,36.148,53.922z" fill="#e4473e" style=""></path><path d="M38.415,42.821c-0.166-0.006-0.319-0.05-0.484-0.05c-1.612,0-3.159,0.236-4.663,0.591c0.812,1.318,1.739,2.578,2.88,3.717   c0.12,0.118,0.262,0.196,0.384,0.314c0.868-0.583,1.797-1.008,2.716-1.471C38.91,44.916,38.625,43.881,38.415,42.821z" fill="#e4473e" style=""></path><path d="M42.771,37.934c0,0.166,0.046,0.318,0.048,0.484c1.062,0.21,2.092,0.498,3.1,0.834c0.462-0.921,0.89-1.851,1.471-2.719   c-0.113-0.123-0.192-0.267-0.312-0.385c-1.141-1.139-2.402-2.066-3.715-2.879C43.006,34.774,42.771,36.319,42.771,37.934z" fill="#e4473e" style=""></path><path d="M57.635,33.27c-1.314,0.812-2.575,1.74-3.718,2.879c-0.118,0.118-0.195,0.262-0.309,0.385   c0.579,0.868,1.007,1.798,1.469,2.719c1.008-0.336,2.038-0.624,3.099-0.834c0.004-0.166,0.052-0.318,0.052-0.484   C58.228,36.319,57.993,34.774,57.635,33.27z" fill="#e4473e" style=""></path><path d="M63.063,42.771c-0.166,0-0.314,0.044-0.48,0.05c-0.209,1.06-0.498,2.095-0.838,3.102c0.921,0.463,1.851,0.888,2.719,1.471   c0.122-0.118,0.266-0.196,0.384-0.314c1.139-1.139,2.067-2.398,2.883-3.717C66.226,43.008,64.678,42.771,63.063,42.771z" fill="#e4473e" style=""></path><path d="M48.074,49.493c-0.035,0.676-0.035,1.339,0,2.012c0.452,0.502,0.921,0.969,1.42,1.423c0.671,0.034,1.335,0.034,2.007,0   c0.5-0.454,0.972-0.926,1.423-1.423c0.035-0.673,0.033-1.336,0-2.008c-0.451-0.502-0.921-0.969-1.42-1.423   c-0.673-0.035-1.34-0.035-2.012,0C48.995,48.528,48.524,48.995,48.074,49.493z" fill="#e4473e" style=""></path><path d="M64.464,53.608c-0.868,0.585-1.798,1.008-2.719,1.471c0.34,1.008,0.628,2.042,0.838,3.102   c0.166,0.004,0.314,0.048,0.48,0.048c1.615,0,3.163-0.234,4.668-0.59c-0.816-1.316-1.745-2.577-2.883-3.717   C64.73,53.805,64.586,53.726,64.464,53.608z" fill="#e4473e" style=""></path><path d="M72.271,55.926c2.583-1.327,4.827-3.173,6.615-5.425c-1.788-2.252-4.031-4.098-6.615-5.425   c-1.091,1.929-2.357,3.784-3.998,5.425C69.914,52.142,71.179,53.996,72.271,55.926z" fill="#e4473e" style=""></path><path d="M62.138,31.245c0.585,2.133,0.925,4.367,0.925,6.688c2.322,0,4.555,0.341,6.689,0.93c0.868-2.745,1.143-5.603,0.82-8.436   C67.74,30.104,64.879,30.375,62.138,31.245z" fill="#e4473e" style=""></path><path d="M50.498,22.11c-2.253,1.794-4.099,4.033-5.424,6.616c1.927,1.096,3.782,2.361,5.424,4.002   c1.644-1.641,3.498-2.906,5.426-4.002C54.597,26.144,52.752,23.904,50.498,22.11z" fill="#e4473e" style=""></path><path d="M37.931,37.934c0-2.321,0.34-4.556,0.927-6.688c-2.74-0.87-5.601-1.141-8.432-0.817c-0.323,2.833-0.05,5.69,0.817,8.436   C33.377,38.274,35.612,37.934,37.931,37.934z" fill="#e4473e" style=""></path><path d="M22.108,50.501c1.794,2.252,4.034,4.098,6.618,5.425c1.091-1.93,2.356-3.784,3.999-5.425   c-1.643-1.641-2.908-3.496-4.001-5.425C26.143,46.403,23.902,48.249,22.108,50.501z" fill="#e4473e" style=""></path><path d="M38.858,69.757c-0.587-2.133-0.927-4.367-0.927-6.688c-2.319,0-4.553-0.341-6.688-0.93   c-0.868,2.745-1.14,5.604-0.817,8.436C33.257,70.896,36.118,70.627,38.858,69.757z" fill="#e4473e" style=""></path><path d="M50.498,78.891c2.255-1.793,4.1-4.032,5.426-6.616c-1.929-1.095-3.782-2.36-5.426-4c-1.642,1.64-3.497,2.905-5.424,4   C46.401,74.858,48.245,77.098,50.498,78.891z" fill="#e4473e" style=""></path><path d="M63.063,63.068c0,2.321-0.34,4.556-0.925,6.688c2.741,0.87,5.602,1.139,8.435,0.817c0.323-2.832,0.048-5.695-0.82-8.436   C67.618,62.728,65.385,63.068,63.063,63.068z" fill="#e4473e" style=""></path><path d="M87.425,44.026c-0.571,2.304-1.457,4.476-2.614,6.475c1.157,1.999,2.043,4.177,2.614,6.475   C88.844,52.771,88.844,48.231,87.425,44.026z" fill="#e4473e" style=""></path><path d="M81.233,29.05c-1.981-4.041-5.244-7.301-9.286-9.282c1.249,2.063,2.147,4.268,2.745,6.541   C76.966,26.907,79.165,27.802,81.233,29.05z" fill="#e4473e" style=""></path><path d="M56.971,13.576c-4.204-1.418-8.742-1.418-12.947,0c2.3,0.571,4.473,1.453,6.473,2.614   C52.5,15.029,54.671,14.147,56.971,13.576z" fill="#e4473e" style=""></path><path d="M29.047,19.768c-4.042,1.981-7.301,5.241-9.284,9.282c2.066-1.248,4.268-2.143,6.541-2.741   C26.904,24.035,27.798,21.831,29.047,19.768z" fill="#e4473e" style=""></path><path d="M13.571,56.973c0.574-2.3,1.458-4.473,2.616-6.472c-1.159-1.999-2.04-4.171-2.616-6.472   C12.158,48.231,12.158,52.771,13.571,56.973z" fill="#e4473e" style=""></path><path d="M19.765,71.952c1.981,4.041,5.24,7.297,9.279,9.282c-1.248-2.068-2.141-4.269-2.741-6.542   C24.031,74.095,21.829,73.2,19.765,71.952z" fill="#e4473e" style=""></path><path d="M44.024,87.426c4.205,1.418,8.746,1.418,12.947,0c-2.3-0.572-4.472-1.453-6.474-2.614   C48.498,85.973,46.324,86.854,44.024,87.426z" fill="#e4473e" style=""></path><path d="M71.952,81.234c4.037-1.985,7.3-5.241,9.281-9.282c-2.068,1.248-4.267,2.143-6.541,2.74   C74.095,76.966,73.2,79.166,71.952,81.234z" fill="#e4473e" style=""></path></g><desc>Created with Snap</desc><defs></defs></g><g><g transform="matrix(1.024,0,0,-1.024,0,0)"><path d="M297 136Q297 166 279 183Q261 200 234 211Q208 223 176 233Q145 244 118 260Q92 277 74 303Q56 329 56 373Q56 445 97 478Q138 512 211 512Q265 512 301 502Q338 493 365 480L346 414Q323 425 290 433Q258 442 221 442Q177 442 156 427Q136 412 136 375Q136 349 154 334Q172 320 198 308Q225 297 256 286Q288 275 314 257Q341 239 359 211Q377 184 377 139Q377 107 366 79Q356 51 334 31Q312 11 279 -1Q247 -12 203 -12Q146 -12 106 -1Q66 10 39 25L63 93Q86 80 123 69Q160 58 198 58Q241 58 269 75Q297 92 297 136ZM432 430L432 500L510 500L510 599L590 622L590 500L726 500L726 430L590 430L590 153Q590 101 603 79Q616 58 647 58Q673 58 691 63Q709 69 731 78L749 17Q722 4 690 -4Q658 -12 621 -12Q560 -12 535 22Q510 57 510 138L510 430L432 430ZM829 500L909 500L909 215Q909 176 913 146Q918 117 929 97Q940 78 959 68Q978 58 1007 58Q1034 58 1055 66Q1076 75 1092 90Q1109 105 1121 124Q1134 144 1142 166L1142 500L1222 500L1222 142Q1222 106 1224 67Q1227 29 1233 0L1178 0L1158 79L1153 79Q1130 40 1091 14Q1052 -12 992 -12Q952 -12 921 -3Q891 7 870 31Q850 55 839 95Q829 136 829 198L829 500ZM1760 700L1760 172Q1760 121 1761 79Q1762 38 1770 -2L1716 -2L1696 69L1692 69Q1672 34 1634 11Q1596 -12 1545 -12Q1445 -12 1396 51Q1348 114 1348 248Q1348 376 1408 442Q1469 509 1575 509Q1612 509 1633 505Q1655 501 1680 492L1680 700L1760 700ZM1558 58Q1609 58 1639 84Q1669 111 1680 165L1680 413Q1662 427 1639 433Q1616 439 1578 439Q1509 439 1470 393Q1431 348 1431 248Q1431 207 1437 172Q1444 137 1459 112Q1474 87 1498 72Q1523 58 1558 58ZM2249 98L2279 40Q2249 16 2203 2Q2158 -12 2107 -12Q2050 -12 2008 6Q1966 25 1939 59Q1912 94 1899 142Q1886 190 1886 250Q1886 378 1943 445Q2000 512 2106 512Q2140 512 2174 504Q2208 497 2235 476Q2262 455 2279 416Q2296 378 2296 315Q2296 282 2290 242L1969 242Q1969 198 1978 164Q1987 130 2006 106Q2025 83 2055 70Q2086 58 2130 58Q2164 58 2198 70Q2232 82 2249 98ZM2107 442Q2048 442 2012 411Q1977 380 1970 305L2218 305Q2218 381 2189 411Q2160 442 2107 442ZM2823 0L2743 0L2743 285Q2743 363 2720 402Q2698 442 2638 442Q2585 442 2550 413Q2516 385 2502 342L2502 0L2422 0L2422 500L2478 500L2493 439L2497 439Q2521 471 2561 491Q2602 512 2658 512Q2699 512 2730 502Q2761 493 2781 469Q2802 445 2812 404Q2823 364 2823 302L2823 0ZM2903 430L2903 500L2981 500L2981 599L3061 622L3061 500L3197 500L3197 430L3061 430L3061 153Q3061 101 3074 79Q3087 58 3118 58Q3144 58 3162 63Q3180 69 3202 78L3220 17Q3193 4 3161 -4Q3129 -12 3092 -12Q3031 -12 3006 22Q2981 57 2981 138L2981 430L2903 430Z" fill="#1a283f" style=""></path></g></g><g transform="matrix(1,0,0,1,-10.24,1036.2881)"><g transform="matrix(1.024,0,0,-1.024,0,0)"><path d="M460 478L460 -200L380 -200L380 50L376 50Q356 20 325 4Q295 -12 245 -12Q145 -12 97 51Q49 115 49 248Q49 377 111 443Q173 509 292 509Q345 509 391 499Q438 489 460 478ZM259 58Q310 58 339 84Q368 110 380 164L380 420Q343 439 278 439Q209 439 170 392Q132 346 132 249Q132 207 139 171Q146 136 161 111Q176 86 200 72Q224 58 259 58ZM606 500L686 500L686 215Q686 176 690 146Q695 117 706 97Q717 78 736 68Q755 58 784 58Q811 58 832 66Q853 75 869 90Q886 105 898 124Q911 144 919 166L919 500L999 500L999 142Q999 106 1001 67Q1004 29 1010 0L955 0L935 79L930 79Q907 40 868 14Q829 -12 769 -12Q729 -12 698 -3Q668 7 647 31Q627 55 616 95Q606 136 606 198L606 500ZM1488 98L1518 40Q1488 16 1442 2Q1397 -12 1346 -12Q1289 -12 1247 6Q1205 25 1178 59Q1151 94 1138 142Q1125 190 1125 250Q1125 378 1182 445Q1239 512 1345 512Q1379 512 1413 504Q1447 497 1474 476Q1501 455 1518 416Q1535 378 1535 315Q1535 282 1529 242L1208 242Q1208 198 1217 164Q1226 130 1245 106Q1264 83 1294 70Q1325 58 1369 58Q1403 58 1437 70Q1471 82 1488 98ZM1346 442Q1287 442 1251 411Q1216 380 1209 305L1457 305Q1457 381 1428 411Q1399 442 1346 442ZM1914 500L1897 423Q1867 433 1840 433Q1797 433 1772 409Q1747 386 1741 350L1741 0L1661 0L1661 500L1717 500L1732 439L1736 439Q1755 473 1781 491Q1808 510 1849 510Q1878 510 1914 500ZM2028 500L2148 176L2176 80L2181 80L2203 177L2300 500L2381 500L2233 51Q2216 2 2199 -44Q2183 -90 2163 -126Q2143 -162 2118 -184Q2093 -205 2060 -205Q2024 -205 2001 -195L2015 -126Q2028 -131 2040 -131Q2068 -131 2094 -102Q2120 -72 2137 0L1936 500L2028 500ZM2734 -200L2734 500L2789 500L2804 440L2808 440Q2831 475 2867 493Q2904 512 2951 512Q3051 512 3100 453Q3149 394 3149 260Q3149 197 3132 146Q3116 96 3086 61Q3056 26 3013 7Q2971 -12 2919 -12Q2882 -12 2860 -8Q2839 -3 2814 8L2814 -200L2734 -200ZM2936 442Q2885 442 2855 415Q2826 389 2814 335L2814 87Q2832 73 2855 65Q2878 58 2916 58Q2985 58 3025 109Q3066 161 3066 261Q3066 302 3059 335Q3052 369 3036 392Q3021 416 2996 429Q2972 442 2936 442ZM3247 250Q3247 377 3303 444Q3360 512 3466 512Q3522 512 3563 493Q3605 475 3632 440Q3659 406 3672 357Q3685 309 3685 250Q3685 123 3628 55Q3572 -12 3466 -12Q3410 -12 3368 6Q3327 25 3300 59Q3273 94 3260 142Q3247 191 3247 250ZM3330 250Q3330 212 3337 177Q3345 142 3361 116Q3377 90 3403 74Q3429 58 3466 58Q3602 57 3602 250Q3602 289 3594 324Q3587 359 3571 385Q3555 411 3529 426Q3503 442 3466 442Q3330 443 3330 250ZM4064 500L4047 423Q4017 433 3990 433Q3947 433 3922 409Q3897 386 3891 350L3891 0L3811 0L3811 500L3867 500L3882 439L3886 439Q3905 473 3931 491Q3958 510 3999 510Q4028 510 4064 500ZM4085 430L4085 500L4163 500L4163 599L4243 622L4243 500L4379 500L4379 430L4243 430L4243 153Q4243 101 4256 79Q4269 58 4300 58Q4326 58 4344 63Q4362 69 4384 78L4402 17Q4375 4 4343 -4Q4311 -12 4274 -12Q4213 -12 4188 22Q4163 57 4163 138L4163 430L4085 430ZM4507 403L4482 463Q4520 486 4570 497Q4621 508 4676 508Q4728 508 4759 494Q4791 480 4807 457Q4824 435 4829 408Q4835 381 4835 354Q4835 294 4832 237Q4829 180 4829 129Q4829 92 4832 59Q4835 26 4843 -2L4784 -2L4763 68L4758 68Q4749 54 4735 40Q4722 27 4703 16Q4684 6 4659 -1Q4634 -8 4602 -8Q4570 -8 4542 2Q4515 12 4495 30Q4475 49 4463 75Q4452 101 4452 134Q4452 178 4470 207Q4488 237 4520 254Q4553 272 4598 279Q4644 287 4699 287Q4713 287 4726 287Q4740 287 4754 285Q4757 315 4757 339Q4757 394 4735 416Q4713 438 4655 438Q4638 438 4618 435Q4599 433 4578 428Q4558 424 4539 417Q4521 411 4507 403ZM4624 62Q4652 62 4674 69Q4696 77 4712 88Q4728 100 4738 114Q4749 128 4754 141L4754 224Q4740 225 4725 225Q4711 226 4697 226Q4666 226 4636 222Q4607 219 4584 209Q4562 200 4548 183Q4535 167 4535 142Q4535 107 4560 84Q4585 62 4624 62ZM5075 700L5075 123Q5075 88 5087 73Q5099 58 5121 58Q5134 58 5149 60Q5164 62 5183 69L5192 6Q5176 -2 5147 -7Q5119 -12 5098 -12Q5053 -12 5024 13Q4995 39 4995 100L4995 700L5075 700Z" fill="#1a283f" style=""></path></g></g></g></svg>